999
DXF from OpenSCAD
  0
SECTION
  2
HEADER
  9
$ACADVER
  1
AC1006
  9
$INSBASE
 10
0.0
 20
0.0
 30
0.0
  9
$EXTMIN
 10
-130
 20
-130
  9
$EXTMAX
 10
130
 20
130
  9
$LINMIN
 10
-130
 20
-130
  9
$LINMAX
 10
130
 20
130
  0
ENDSEC
  0
SECTION
  2
TABLES
  0
TABLE
  2
LTYPE
 70
1
  0
LTYPE
  2
CONTINUOUS
 70
64
  3
Solid line
 72
65
 73
0
 40
0.000000
  0
ENDTAB
  0
TABLE
  2
LAYER
 70
6
  0
LAYER
  2
0
 70
64
 62
7
  6
CONTINUOUS
  0
ENDTAB
  0
TABLE
  2
STYLE
 70
0
  0
ENDTAB
  0
ENDSEC
  0
SECTION
  2
BLOCKS
  0
ENDSEC
  0
SECTION
  2
ENTITIES
  0
LWPOLYLINE
100
AcDbEntity
  8
0
100
AcDbPolyline
 90
200
 70
1
 10
-130
 20
0
 10
-129.936
 20
-4.0834
 10
-129.743
 20
-8.16277
 10
-129.423
 20
-12.2341
 10
-128.975
 20
-16.2933
 10
-128.399
 20
-20.3365
 10
-127.697
 20
-24.3596
 10
-126.869
 20
-28.3586
 10
-125.916
 20
-32.3297
 10
-124.838
 20
-36.2688
 10
-123.637
 20
-40.1722
 10
-122.314
 20
-44.0359
 10
-120.871
 20
-47.8562
 10
-119.308
 20
-51.6292
 10
-117.628
 20
-55.3513
 10
-115.831
 20
-59.0188
 10
-113.92
 20
-62.628
 10
-111.896
 20
-66.1754
 10
-109.763
 20
-69.6575
 10
-107.52
 20
-73.0708
 10
-105.172
 20
-76.4121
 10
-102.72
 20
-79.6779
 10
-100.167
 20
-82.8651
 10
-97.5144
 20
-85.9705
 10
-94.7659
 20
-88.9911
 10
-91.9239
 20
-91.9239
 10
-88.9911
 20
-94.7659
 10
-85.9705
 20
-97.5144
 10
-82.8651
 20
-100.167
 10
-79.6779
 20
-102.72
 10
-76.4121
 20
-105.172
 10
-73.0708
 20
-107.52
 10
-69.6575
 20
-109.763
 10
-66.1754
 20
-111.896
 10
-62.628
 20
-113.92
 10
-59.0188
 20
-115.831
 10
-55.3513
 20
-117.628
 10
-51.6292
 20
-119.308
 10
-47.8562
 20
-120.871
 10
-44.0359
 20
-122.314
 10
-40.1722
 20
-123.637
 10
-36.2688
 20
-124.838
 10
-32.3297
 20
-125.916
 10
-28.3586
 20
-126.869
 10
-24.3596
 20
-127.697
 10
-20.3365
 20
-128.399
 10
-16.2933
 20
-128.975
 10
-12.2341
 20
-129.423
 10
-8.16277
 20
-129.743
 10
-4.0834
 20
-129.936
 10
0
 20
-130
 10
4.0834
 20
-129.936
 10
8.16277
 20
-129.743
 10
12.2341
 20
-129.423
 10
16.2933
 20
-128.975
 10
20.3365
 20
-128.399
 10
24.3596
 20
-127.697
 10
28.3586
 20
-126.869
 10
32.3297
 20
-125.916
 10
36.2688
 20
-124.838
 10
40.1722
 20
-123.637
 10
44.0359
 20
-122.314
 10
47.8562
 20
-120.871
 10
51.6292
 20
-119.308
 10
55.3513
 20
-117.628
 10
59.0188
 20
-115.831
 10
62.628
 20
-113.92
 10
66.1754
 20
-111.896
 10
69.6575
 20
-109.763
 10
73.0708
 20
-107.52
 10
76.4121
 20
-105.172
 10
79.6779
 20
-102.72
 10
82.8651
 20
-100.167
 10
85.9705
 20
-97.5144
 10
88.9911
 20
-94.7659
 10
91.9239
 20
-91.9239
 10
94.7659
 20
-88.9911
 10
97.5144
 20
-85.9705
 10
100.167
 20
-82.8651
 10
102.72
 20
-79.6779
 10
105.172
 20
-76.4121
 10
107.52
 20
-73.0708
 10
109.763
 20
-69.6575
 10
111.896
 20
-66.1754
 10
113.92
 20
-62.628
 10
115.831
 20
-59.0188
 10
117.628
 20
-55.3513
 10
119.308
 20
-51.6292
 10
120.871
 20
-47.8562
 10
122.314
 20
-44.0359
 10
123.637
 20
-40.1722
 10
124.838
 20
-36.2688
 10
125.916
 20
-32.3297
 10
126.869
 20
-28.3586
 10
127.697
 20
-24.3596
 10
128.399
 20
-20.3365
 10
128.975
 20
-16.2933
 10
129.423
 20
-12.2341
 10
129.743
 20
-8.16277
 10
129.936
 20
-4.0834
 10
130
 20
0
 10
129.936
 20
4.0834
 10
129.743
 20
8.16277
 10
129.423
 20
12.2341
 10
128.975
 20
16.2933
 10
128.399
 20
20.3365
 10
127.697
 20
24.3596
 10
126.869
 20
28.3586
 10
125.916
 20
32.3297
 10
124.838
 20
36.2688
 10
123.637
 20
40.1722
 10
122.314
 20
44.0359
 10
120.871
 20
47.8562
 10
119.308
 20
51.6292
 10
117.628
 20
55.3513
 10
115.831
 20
59.0188
 10
113.92
 20
62.628
 10
111.896
 20
66.1754
 10
109.763
 20
69.6575
 10
107.52
 20
73.0708
 10
105.172
 20
76.4121
 10
102.72
 20
79.6779
 10
100.167
 20
82.8651
 10
97.5144
 20
85.9705
 10
94.7659
 20
88.9911
 10
91.9239
 20
91.9239
 10
88.9911
 20
94.7659
 10
85.9705
 20
97.5144
 10
82.8651
 20
100.167
 10
79.6779
 20
102.72
 10
76.4121
 20
105.172
 10
73.0708
 20
107.52
 10
69.6575
 20
109.763
 10
66.1754
 20
111.896
 10
62.628
 20
113.92
 10
59.0188
 20
115.831
 10
55.3513
 20
117.628
 10
51.6292
 20
119.308
 10
47.8562
 20
120.871
 10
44.0359
 20
122.314
 10
40.1722
 20
123.637
 10
36.2688
 20
124.838
 10
32.3297
 20
125.916
 10
28.3586
 20
126.869
 10
24.3596
 20
127.697
 10
20.3365
 20
128.399
 10
16.2933
 20
128.975
 10
12.2341
 20
129.423
 10
8.16277
 20
129.743
 10
4.0834
 20
129.936
 10
0
 20
130
 10
-4.0834
 20
129.936
 10
-8.16277
 20
129.743
 10
-12.2341
 20
129.423
 10
-16.2933
 20
128.975
 10
-20.3365
 20
128.399
 10
-24.3596
 20
127.697
 10
-28.3586
 20
126.869
 10
-32.3297
 20
125.916
 10
-36.2688
 20
124.838
 10
-40.1722
 20
123.637
 10
-44.0359
 20
122.314
 10
-47.8562
 20
120.871
 10
-51.6292
 20
119.308
 10
-55.3513
 20
117.628
 10
-59.0188
 20
115.831
 10
-62.628
 20
113.92
 10
-66.1754
 20
111.896
 10
-69.6575
 20
109.763
 10
-73.0708
 20
107.52
 10
-76.4121
 20
105.172
 10
-79.6779
 20
102.72
 10
-82.8651
 20
100.167
 10
-85.9705
 20
97.5144
 10
-88.9911
 20
94.7659
 10
-91.9239
 20
91.9239
 10
-94.7659
 20
88.9911
 10
-97.5144
 20
85.9705
 10
-100.167
 20
82.8651
 10
-102.72
 20
79.6779
 10
-105.172
 20
76.4121
 10
-107.52
 20
73.0708
 10
-109.763
 20
69.6575
 10
-111.896
 20
66.1754
 10
-113.92
 20
62.628
 10
-115.831
 20
59.0188
 10
-117.628
 20
55.3513
 10
-119.308
 20
51.6292
 10
-120.871
 20
47.8562
 10
-122.314
 20
44.0359
 10
-123.637
 20
40.1722
 10
-124.838
 20
36.2688
 10
-125.916
 20
32.3297
 10
-126.869
 20
28.3586
 10
-127.697
 20
24.3596
 10
-128.399
 20
20.3365
 10
-128.975
 20
16.2933
 10
-129.423
 20
12.2341
 10
-129.743
 20
8.16277
 10
-129.936
 20
4.0834
  0
LWPOLYLINE
100
AcDbEntity
  8
0
100
AcDbPolyline
 90
200
 70
1
 10
-90
 20
0
 10
-89.9556
 20
2.82697
 10
-89.8224
 20
5.65115
 10
-89.6006
 20
8.46975
 10
-89.2903
 20
11.28
 10
-88.892
 20
14.0791
 10
-88.4059
 20
16.8643
 10
-87.8325
 20
19.6329
 10
-87.1725
 20
22.3821
 10
-86.4264
 20
25.1092
 10
-85.5951
 20
27.8115
 10
-84.6793
 20
30.4864
 10
-83.6799
 20
33.1312
 10
-82.5979
 20
35.7433
 10
-81.4344
 20
38.3201
 10
-80.1906
 20
40.8591
 10
-78.8676
 20
43.3578
 10
-77.4668
 20
45.8137
 10
-75.9895
 20
48.2244
 10
-74.4373
 20
50.5875
 10
-72.8115
 20
52.9007
 10
-71.114
 20
55.1616
 10
-69.3462
 20
57.3682
 10
-67.51
 20
59.5181
 10
-65.6072
 20
61.6092
 10
-63.6396
 20
63.6396
 10
-61.6092
 20
65.6072
 10
-59.5181
 20
67.51
 10
-57.3682
 20
69.3462
 10
-55.1616
 20
71.114
 10
-52.9007
 20
72.8115
 10
-50.5875
 20
74.4373
 10
-48.2244
 20
75.9895
 10
-45.8137
 20
77.4668
 10
-43.3578
 20
78.8676
 10
-40.8591
 20
80.1906
 10
-38.3201
 20
81.4344
 10
-35.7433
 20
82.5979
 10
-33.1312
 20
83.6799
 10
-30.4864
 20
84.6793
 10
-27.8115
 20
85.5951
 10
-25.1092
 20
86.4264
 10
-22.3821
 20
87.1725
 10
-19.6329
 20
87.8325
 10
-16.8643
 20
88.4059
 10
-14.0791
 20
88.892
 10
-11.28
 20
89.2903
 10
-8.46975
 20
89.6006
 10
-5.65115
 20
89.8224
 10
-2.82697
 20
89.9556
 10
0
 20
90
 10
2.82697
 20
89.9556
 10
5.65115
 20
89.8224
 10
8.46975
 20
89.6006
 10
11.28
 20
89.2903
 10
14.0791
 20
88.892
 10
16.8643
 20
88.4059
 10
19.6329
 20
87.8325
 10
22.3821
 20
87.1725
 10
25.1092
 20
86.4264
 10
27.8115
 20
85.5951
 10
30.4864
 20
84.6793
 10
33.1312
 20
83.6799
 10
35.7433
 20
82.5979
 10
38.3201
 20
81.4344
 10
40.8591
 20
80.1906
 10
43.3578
 20
78.8676
 10
45.8137
 20
77.4668
 10
48.2244
 20
75.9895
 10
50.5875
 20
74.4373
 10
52.9007
 20
72.8115
 10
55.1616
 20
71.114
 10
57.3682
 20
69.3462
 10
59.5181
 20
67.51
 10
61.6092
 20
65.6072
 10
63.6396
 20
63.6396
 10
65.6072
 20
61.6092
 10
67.51
 20
59.5181
 10
69.3462
 20
57.3682
 10
71.114
 20
55.1616
 10
72.8115
 20
52.9007
 10
74.4373
 20
50.5875
 10
75.9895
 20
48.2244
 10
77.4668
 20
45.8137
 10
78.8676
 20
43.3578
 10
80.1906
 20
40.8591
 10
81.4344
 20
38.3201
 10
82.5979
 20
35.7433
 10
83.6799
 20
33.1312
 10
84.6793
 20
30.4864
 10
85.5951
 20
27.8115
 10
86.4264
 20
25.1092
 10
87.1725
 20
22.3821
 10
87.8325
 20
19.6329
 10
88.4059
 20
16.8643
 10
88.892
 20
14.0791
 10
89.2903
 20
11.28
 10
89.6006
 20
8.46975
 10
89.8224
 20
5.65115
 10
89.9556
 20
2.82697
 10
90
 20
0
 10
89.9556
 20
-2.82697
 10
89.8224
 20
-5.65115
 10
89.6006
 20
-8.46975
 10
89.2903
 20
-11.28
 10
88.892
 20
-14.0791
 10
88.4059
 20
-16.8643
 10
87.8325
 20
-19.6329
 10
87.1725
 20
-22.3821
 10
86.4264
 20
-25.1092
 10
85.5951
 20
-27.8115
 10
84.6793
 20
-30.4864
 10
83.6799
 20
-33.1312
 10
82.5979
 20
-35.7433
 10
81.4344
 20
-38.3201
 10
80.1906
 20
-40.8591
 10
78.8676
 20
-43.3578
 10
77.4668
 20
-45.8137
 10
75.9895
 20
-48.2244
 10
74.4373
 20
-50.5875
 10
72.8115
 20
-52.9007
 10
71.114
 20
-55.1616
 10
69.3462
 20
-57.3682
 10
67.51
 20
-59.5181
 10
65.6072
 20
-61.6092
 10
63.6396
 20
-63.6396
 10
61.6092
 20
-65.6072
 10
59.5181
 20
-67.51
 10
57.3682
 20
-69.3462
 10
55.1616
 20
-71.114
 10
52.9007
 20
-72.8115
 10
50.5875
 20
-74.4373
 10
48.2244
 20
-75.9895
 10
45.8137
 20
-77.4668
 10
43.3578
 20
-78.8676
 10
40.8591
 20
-80.1906
 10
38.3201
 20
-81.4344
 10
35.7433
 20
-82.5979
 10
33.1312
 20
-83.6799
 10
30.4864
 20
-84.6793
 10
27.8115
 20
-85.5951
 10
25.1092
 20
-86.4264
 10
22.3821
 20
-87.1725
 10
19.6329
 20
-87.8325
 10
16.8643
 20
-88.4059
 10
14.0791
 20
-88.892
 10
11.28
 20
-89.2903
 10
8.46975
 20
-89.6006
 10
5.65115
 20
-89.8224
 10
2.82697
 20
-89.9556
 10
0
 20
-90
 10
-2.82697
 20
-89.9556
 10
-5.65115
 20
-89.8224
 10
-8.46975
 20
-89.6006
 10
-11.28
 20
-89.2903
 10
-14.0791
 20
-88.892
 10
-16.8643
 20
-88.4059
 10
-19.6329
 20
-87.8325
 10
-22.3821
 20
-87.1725
 10
-25.1092
 20
-86.4264
 10
-27.8115
 20
-85.5951
 10
-30.4864
 20
-84.6793
 10
-33.1312
 20
-83.6799
 10
-35.7433
 20
-82.5979
 10
-38.3201
 20
-81.4344
 10
-40.8591
 20
-80.1906
 10
-43.3578
 20
-78.8676
 10
-45.8137
 20
-77.4668
 10
-48.2244
 20
-75.9895
 10
-50.5875
 20
-74.4373
 10
-52.9007
 20
-72.8115
 10
-55.1616
 20
-71.114
 10
-57.3682
 20
-69.3462
 10
-59.5181
 20
-67.51
 10
-61.6092
 20
-65.6072
 10
-63.6396
 20
-63.6396
 10
-65.6072
 20
-61.6092
 10
-67.51
 20
-59.5181
 10
-69.3462
 20
-57.3682
 10
-71.114
 20
-55.1616
 10
-72.8115
 20
-52.9007
 10
-74.4373
 20
-50.5875
 10
-75.9895
 20
-48.2244
 10
-77.4668
 20
-45.8137
 10
-78.8676
 20
-43.3578
 10
-80.1906
 20
-40.8591
 10
-81.4344
 20
-38.3201
 10
-82.5979
 20
-35.7433
 10
-83.6799
 20
-33.1312
 10
-84.6793
 20
-30.4864
 10
-85.5951
 20
-27.8115
 10
-86.4264
 20
-25.1092
 10
-87.1725
 20
-22.3821
 10
-87.8325
 20
-19.6329
 10
-88.4059
 20
-16.8643
 10
-88.892
 20
-14.0791
 10
-89.2903
 20
-11.28
 10
-89.6006
 20
-8.46975
 10
-89.8224
 20
-5.65115
 10
-89.9556
 20
-2.82697
  0
ENDSEC
  0
EOF
